# xmcd CD database file
#
# Track frame offsets:
#	150
#	23152
#	41952
#	65025
#
# Disc length: 1113 seconds
#
# Revision: 0
# Processed by: cddbd v1.5.1PL0 Copyright (c) Steve Scherf et al.
# Submitted via: CDex 1.51
#
DISCID=35045704
DTITLE=高橋ジョージ - 愛しすぎなくてよかった
DYEAR=1998
DGENRE=JPop
TTITLE0=愛しすぎなくてよかった
TTITLE1=「君は少女のまま大人になった・・・。」
TTITLE2=愛しすぎなくてよかった（オリジナル・カラオケ）
TTITLE3=「君は少女のまま大人になった・・・。」（オリジナル・カラオケ）
EXTD=YEAR: 1998
EXTT0=
EXTT1=
EXTT2=
EXTT3=
PLAYORDER=
